<svg xmlns="http://www.w3.org/2000/svg" width="286" height="32" viewBox="0 0 286 32">
    <g fill="none">
        <path fill="#164194" d="M0 0L48.992 0 48.992 31.712 0 31.712 0 0z"/>
        <path fill="#FFED00" d="M23.452 6.908L24.487 6.176 25.518 6.908 25.127 5.724 26.176 4.992 24.882 4.992 24.487 3.794 24.089 4.992 22.795 4.992 23.844 5.724 23.452 6.908zM18.101 8.306L19.136 7.573 20.171 8.306 19.776 7.122 20.825 6.389 19.531 6.389 19.136 5.188 18.738 6.389 17.444 6.389 18.496 7.122 18.101 8.306zM15.221 8.996L14.827 10.197 13.532 10.197 14.581 10.93 14.187 12.114 15.221 11.381 16.256 12.114 15.861 10.93 16.91 10.197 15.616 10.197 15.221 8.996zM13.785 16.569L14.82 17.301 14.425 16.117 15.474 15.385 14.18 15.385 13.785 14.183 13.39 15.388 12.096 15.385 13.145 16.117 12.75 17.301 13.785 16.569zM15.616 20.587L15.221 19.388 14.827 20.59 13.532 20.587 14.581 21.319 14.187 22.507 15.221 21.771 16.256 22.507 15.861 21.319 16.91 20.587 15.616 20.587zM19.538 24.395L19.143 23.196 18.748 24.398 17.454 24.395 18.503 25.127 18.112 26.315 19.143 25.579 20.178 26.315 19.783 25.127 20.832 24.395 19.538 24.395zM24.882 25.778L24.487 24.576 24.092 25.778 22.798 25.778 23.847 26.51 23.452 27.694 24.487 26.962 25.522 27.694 25.127 26.51 26.176 25.778 24.882 25.778zM30.226 24.395L29.831 23.196 29.433 24.398 28.139 24.395 29.188 25.127 28.796 26.315 29.831 25.579 30.862 26.315 30.471 25.127 31.52 24.395 30.226 24.395zM34.148 20.587L33.753 19.388 33.355 20.59 32.06 20.587 33.113 21.319 32.718 22.507 33.753 21.771 34.784 22.507 34.393 21.319 35.442 20.587 34.148 20.587zM36.864 15.371L35.57 15.371 35.172 14.169 34.777 15.371 33.483 15.371 34.532 16.103 34.14 17.287 35.172 16.555 36.206 17.287 35.812 16.103 36.864 15.371zM32.718 12.1L33.753 11.367 34.784 12.1 34.393 10.916 35.442 10.183 34.148 10.183 33.753 8.981 33.355 10.183 32.06 10.183 33.113 10.916 32.718 12.1zM29.845 5.188L29.451 6.389 28.156 6.389 29.205 7.122 28.811 8.306 29.845 7.573 30.88 8.306 30.485 7.122 31.534 6.389 30.24 6.389 29.845 5.188z"/>
        <path fill="#1D1D1B" d="M62.596 9.18l1.76.552c-.193.849-.662 1.61-1.334 2.165-1.664 1.111-3.88.894-5.298-.52-.763-.808-1.144-1.912-1.144-3.313 0-1.481.382-2.632 1.148-3.452.783-.828 1.884-1.276 3.022-1.23.978-.042 1.933.304 2.656.963.445.456.76 1.023.91 1.643l-1.777.423c-.17-.894-.969-1.529-1.878-1.494-.616-.019-1.207.243-1.607.711-.412.473-.615 1.241-.615 2.304 0 1.124.2 1.928.605 2.404.389.469.973.732 1.582.711.453.016.896-.139 1.24-.434.386-.39.64-.891.73-1.433zM65.476 9.138c.003-.576.147-1.143.42-1.65.264-.515.678-.937 1.187-1.212.527-.285 1.118-.429 1.717-.42.897-.032 1.768.312 2.4.95.626.64.964 1.508.935 2.403.029.904-.311 1.78-.942 2.428-.624.64-1.486.989-2.379.964-.588 0-1.167-.137-1.692-.402-.523-.254-.952-.665-1.227-1.177-.294-.583-.438-1.231-.42-1.884zm1.749.089c-.036.53.128 1.055.459 1.472.283.322.692.507 1.121.507.43 0 .839-.185 1.122-.507.328-.422.489-.95.452-1.483.034-.525-.127-1.044-.452-1.458-.282-.325-.691-.511-1.122-.511-.43 0-.84.186-1.121.511-.335.42-.499.951-.46 1.486v-.017zM73.28 10.08L73.28 8.37 76.633 8.37 76.633 10.08zM76.871 6.002h.946v-.487c-.021-.413.038-.826.174-1.216.13-.284.356-.514.637-.651.365-.181.77-.268 1.176-.252.483 0 .962.072 1.423.216l-.231 1.192c-.258-.063-.521-.095-.786-.096-.193-.018-.384.044-.53.17-.13.197-.189.434-.164.669v.455h1.277v1.34h-1.277v5.102H77.81V7.342h-.939v-1.34zM81.778 5.127V3.556h1.71v1.582l-1.71-.01zm0 7.317V6.002h1.71v6.442h-1.71zM91.09 12.444h-1.71V9.16c.023-.453-.013-.907-.107-1.351-.066-.192-.19-.359-.356-.476-.175-.118-.383-.177-.593-.171-.285-.004-.564.082-.797.245-.23.154-.4.38-.483.644-.108.486-.15.985-.128 1.482v2.912h-1.71V6.002h1.585v.946c.718-.999 2.028-1.372 3.165-.904.278.109.523.288.71.52.16.21.275.453.335.71.074.379.106.764.096 1.15l-.007 4.02zM94.098 7.968l-1.55-.277c.127-.554.445-1.045.9-1.387.571-.337 1.232-.493 1.894-.448.58-.033 1.16.06 1.7.27.329.14.605.38.79.686.188.487.266 1.01.227 1.53l-.018 1.99c-.012.42.015.84.082 1.256.065.3.167.592.305.867H96.74c-.047-.114-.1-.284-.164-.505-.028-.103-.05-.167-.06-.202-.27.269-.587.486-.936.64-.337.143-.7.215-1.066.213-.575.032-1.139-.162-1.572-.54-.38-.353-.59-.852-.576-1.37-.005-.342.086-.68.263-.974.174-.287.429-.516.733-.657.434-.19.89-.323 1.358-.399.564-.087 1.119-.228 1.657-.42v-.17c.028-.261-.06-.521-.242-.711-.274-.169-.597-.242-.917-.21-.527-.06-1.014.289-1.124.807l.004.011zm2.282 1.387c-.34.105-.687.193-1.038.263-.324.05-.638.149-.931.295-.209.13-.335.359-.335.604-.001.236.097.46.27.619.183.175.428.269.68.26.319-.004.628-.11.882-.303.194-.138.337-.337.405-.565.058-.273.08-.553.067-.832v-.341zM105.6 12.444h-1.707V9.16c.025-.453-.012-.908-.11-1.351-.064-.193-.189-.36-.355-.476-.176-.118-.383-.177-.594-.171-.284-.004-.561.082-.793.245-.23.153-.402.38-.484.644-.11.486-.155.985-.131 1.482v2.912h-1.707V6.002h1.614v.946c.49-.692 1.287-1.1 2.134-1.092.354-.005.705.064 1.03.203.278.109.523.288.712.519.16.21.274.453.334.71.071.38.102.764.093 1.15l-.036 4.006zM112.97 7.908l-1.681.305c-.038-.286-.175-.55-.388-.746-.22-.178-.499-.269-.782-.256-.388-.015-.762.147-1.017.44-.293.434-.427.955-.38 1.476 0 .765.128 1.305.387 1.621.25.314.634.49 1.035.473.29.011.574-.086.796-.273.245-.263.398-.597.438-.953l1.678.284c-.122.68-.476 1.298-1.003 1.746-.575.418-1.277.626-1.987.59-.846.04-1.668-.286-2.258-.892-.596-.687-.899-1.581-.843-2.49-.056-.908.248-1.802.847-2.488.599-.609 1.43-.932 2.282-.889.664-.035 1.321.142 1.878.505.495.39.846.934.999 1.547zM118.002 10.4l1.7.284c-.182.574-.545 1.073-1.035 1.423-.528.343-1.149.515-1.778.49-1.124 0-1.952-.355-2.489-1.102-.44-.654-.658-1.431-.622-2.219-.06-.915.235-1.818.825-2.52.544-.6 1.324-.931 2.133-.907.862-.042 1.696.307 2.272.95.555.634.82 1.606.796 2.915h-4.266c-.016.431.131.853.412 1.18.252.277.611.431.985.423.243.008.48-.07.672-.22.2-.186.338-.43.395-.697zm.096-1.724c.019-.411-.118-.814-.384-1.128-.225-.251-.548-.393-.886-.387-.353-.01-.693.14-.924.409-.254.31-.382.705-.356 1.106h2.55zM127.104 12.444h-1.593v-.938c-.24.347-.56.63-.935.825-.335.173-.707.266-1.084.27-.733-.001-1.427-.33-1.892-.896-.563-.703-.845-1.59-.793-2.489 0-1.093.257-1.922.772-2.489.49-.56 1.204-.872 1.948-.853.724 0 1.41.323 1.87.882v-3.2h1.707v8.888zm-4.558-3.367c-.037.514.061 1.03.284 1.494.231.42.676.677 1.156.668.394 0 .766-.185 1.002-.501.305-.436.45-.963.413-1.494 0-.743-.132-1.276-.402-1.6-.244-.316-.624-.498-1.024-.49-.396-.005-.773.173-1.02.483-.304.42-.45.934-.41 1.451v-.01zM132.17 12.444V3.556h1.707v3.2c.457-.568 1.146-.898 1.874-.9.744-.018 1.457.295 1.949.853.516.57.773 1.386.771 2.45 0 1.102-.262 1.952-.786 2.55-.47.568-1.171.895-1.909.892-.38-.003-.755-.098-1.092-.277-.37-.194-.689-.475-.928-.818v.938h-1.585zm1.697-3.367c-.038.515.072 1.029.316 1.483.24.423.69.683 1.177.68.38-.001.736-.18.964-.484.3-.444.44-.977.398-1.512 0-.736-.132-1.269-.402-1.592-.245-.318-.627-.5-1.028-.491-.395-.005-.77.17-1.02.476-.301.421-.444.935-.405 1.451v-.01zM139.022 6.002h1.817l1.543 4.58 1.508-4.58h1.778l-2.276 6.208-.409 1.127c-.112.3-.255.589-.427.86-.127.187-.286.35-.469.484-.198.134-.418.231-.65.288-.285.073-.578.108-.872.103-.325.001-.65-.033-.967-.103l-.153-1.337c.234.049.472.075.711.078.334.026.66-.105.882-.355.204-.264.353-.567.438-.89l-2.454-6.463zM153.184 6.002v1.362h-1.166v2.592c-.01.307 0 .615.032.92.02.09.076.167.153.217.084.058.185.087.288.082.236-.017.468-.072.686-.163l.146 1.326c-.427.176-.886.263-1.348.256-.286.003-.57-.05-.835-.157-.215-.08-.402-.219-.54-.401-.131-.2-.214-.428-.243-.665-.046-.4-.064-.8-.053-1.202V7.364h-.786V6.002h.786V4.718l1.714-.995v2.279h1.166zM156.089 3.556V6.83c.726-.909 1.972-1.215 3.036-.746.282.121.526.314.711.558.16.226.272.482.328.754.07.423.1.853.088 1.283v3.765h-1.706V9.045c.024-.431-.01-.864-.1-1.287-.065-.182-.19-.336-.355-.437-.186-.113-.402-.169-.619-.16-.267-.004-.53.068-.757.206-.23.145-.403.365-.491.622-.119.4-.17.815-.153 1.23v3.225h-1.71V3.556h1.728zM165.707 10.4l1.7.284c-.182.574-.545 1.073-1.035 1.423-.528.343-1.15.515-1.778.49-1.124 0-1.952-.355-2.49-1.102-.443-.654-.666-1.432-.636-2.222-.054-.917.248-1.819.843-2.517.544-.6 1.324-.932 2.133-.907.862-.042 1.697.307 2.272.95.555.634.82 1.606.797 2.915h-4.267c-.016.431.132.853.413 1.18.245.274.596.43.963.43.244.006.482-.071.676-.22.205-.187.348-.433.409-.704zm.096-1.724c.018-.41-.117-.813-.38-1.128-.237-.25-.567-.392-.912-.388-.345.004-.672.153-.902.41-.256.31-.383.705-.356 1.106h2.55zM178.059 9.18l1.745.552c-.186.847-.648 1.61-1.315 2.165-1.665 1.113-3.884.896-5.301-.52-.761-.808-1.143-1.912-1.145-3.313 0-1.481.382-2.632 1.148-3.452.783-.828 1.885-1.276 3.022-1.23.978-.042 1.933.304 2.656.963.445.456.76 1.023.91 1.643l-1.777.423c-.089-.425-.323-.806-.662-1.078-.347-.272-.778-.414-1.22-.401-.615-.02-1.206.242-1.606.71-.413.474-.615 1.242-.615 2.305 0 1.123.202 1.927.608 2.403.387.47.97.732 1.578.711.454.008.894-.154 1.234-.455.388-.387.647-.885.74-1.426zM180.939 9.138c.003-.576.147-1.143.42-1.65.264-.515.678-.937 1.187-1.212.527-.285 1.118-.429 1.717-.42.899-.033 1.77.31 2.404.95.626.64.964 1.508.935 2.403.03.903-.307 1.78-.935 2.428-.624.64-1.486.989-2.379.964-.588 0-1.168-.137-1.692-.402-.527-.252-.96-.664-1.238-1.177-.294-.583-.438-1.231-.42-1.884zm1.753.089c-.037.53.125 1.055.455 1.472.283.322.692.507 1.121.507.43 0 .839-.185 1.122-.507.33-.422.492-.95.455-1.483.034-.525-.128-1.045-.455-1.458-.282-.325-.691-.511-1.122-.511-.43 0-.84.186-1.121.511-.334.42-.496.951-.455 1.486v-.017zM194.805 12.444H193.1V9.16c.024-.453-.013-.908-.11-1.351-.065-.193-.19-.36-.356-.476-.174-.117-.38-.177-.59-.171-.285-.004-.564.082-.797.245-.23.153-.401.38-.483.644-.112.486-.156.985-.132 1.482v2.912h-1.707V6.002h1.586v.946c.718-.997 2.025-1.37 3.161-.904.278.11.522.289.711.52.16.21.274.453.334.71.071.38.102.764.093 1.15l-.004 4.02zM202.407 12.444H200.7V9.16c.025-.453-.012-.908-.11-1.351-.064-.193-.189-.36-.355-.476-.176-.118-.383-.177-.594-.171-.284-.004-.561.082-.793.245-.23.153-.401.38-.484.644-.11.486-.155.985-.131 1.482v2.912h-1.707V6.002h1.586v.946c.722-.992 2.028-1.36 3.16-.89.278.11.523.289.712.52.16.21.274.453.334.71.071.38.102.764.093 1.15l-.004 4.006zM207.876 10.4l1.703.284c-.184.574-.548 1.073-1.039 1.423-.527.344-1.148.515-1.777.49-1.124 0-1.952-.355-2.49-1.102-.443-.654-.666-1.432-.636-2.222-.054-.917.248-1.819.843-2.517.544-.6 1.324-.932 2.133-.907.862-.042 1.696.307 2.272.95.555.634.82 1.606.797 2.915h-4.267c-.014.43.133.852.413 1.18.252.277.61.43.984.423.244.006.483-.072.676-.22.196-.188.331-.431.388-.697zm.096-1.724c.018-.41-.117-.813-.38-1.128-.236-.25-.566-.391-.91-.387-.345.004-.671.152-.9.409-.257.31-.384.705-.356 1.106h2.546zM216.686 7.908l-1.682.305c-.035-.287-.173-.552-.387-.746-.22-.178-.497-.269-.779-.256-.389-.015-.764.147-1.02.44-.292.434-.425.956-.377 1.476 0 .766.128 1.306.384 1.621.25.314.634.49 1.035.473.29.012.574-.086.796-.273.254-.264.414-.604.455-.968l1.678.285c-.121.68-.476 1.298-1.002 1.746-.576.418-1.277.626-1.988.59-.845.038-1.667-.287-2.258-.893-.595-.687-.896-1.58-.839-2.488-.055-.908.247-1.802.843-2.49.6-.608 1.432-.931 2.286-.888.663-.036 1.319.141 1.874.505.491.397.836.946.981 1.56zM220.939 6.002v1.362h-1.167v2.592c-.012.307 0 .615.036.92.022.088.075.165.15.217.086.057.188.086.29.082.237-.017.469-.072.687-.163l.146 1.326c-.428.176-.888.264-1.351.256-.285.003-.568-.05-.832-.157-.215-.08-.404-.22-.544-.401-.13-.201-.21-.428-.238-.665-.05-.399-.07-.8-.057-1.202V7.364h-.783V6.002h.783V4.718l1.713-.995v2.279h1.167zM222.126 5.127V3.556h1.707v1.582l-1.707-.01zm0 7.328V6.002h1.707v6.442l-1.707.011zM231.467 12.444h-1.707V9.16c.023-.453-.014-.907-.11-1.351-.066-.192-.19-.359-.356-.476-.175-.118-.383-.177-.594-.171-.284-.004-.563.082-.796.245-.23.154-.4.38-.484.644-.107.486-.15.985-.128 1.482v2.912h-1.706V6.002h1.586v.946c.72-.992 2.026-1.36 3.157-.89.278.11.523.288.711.52.162.21.276.452.334.71.074.379.107.764.096 1.15l-.003 4.006zM233.024 12.878l1.952.238c.008.18.089.35.224.47.231.138.5.202.768.181.346.022.692-.048 1.003-.203.159-.1.278-.251.337-.43.067-.255.093-.519.079-.782v-.942c-.428.648-1.154 1.037-1.931 1.034-.832.02-1.613-.399-2.059-1.102-.416-.642-.625-1.397-.597-2.162 0-1.066.26-1.909.782-2.488.489-.559 1.2-.873 1.942-.857.795 0 1.537.401 1.973 1.066v-.9h1.6v5.79c.022.575-.041 1.152-.189 1.71-.101.333-.283.637-.53.885-.26.233-.57.406-.906.505-.462.13-.942.192-1.422.181-1.092 0-1.867-.185-2.326-.562-.438-.34-.692-.867-.686-1.422-.018-.06-.018-.128-.014-.21zm1.525-3.783c-.042.532.099 1.063.399 1.504.235.302.598.478.98.477.412.006.805-.174 1.068-.491.315-.414.468-.929.43-1.447.04-.53-.105-1.057-.413-1.49-.255-.314-.64-.494-1.045-.487-.393-.007-.768.17-1.013.476-.3.425-.442.94-.406 1.458zM244.267 12.444L244.267 3.556 250.869 3.556 250.869 5.063 246.044 5.063 246.044 7.036 250.524 7.036 250.524 8.533 246.044 8.533 246.044 10.958 251.022 10.958 251.022 12.444zM256.79 12.444v-.956c-.236.345-.554.625-.925.814-.374.197-.79.3-1.213.299-.407.007-.809-.092-1.166-.288-.332-.176-.596-.457-.75-.8-.172-.454-.25-.938-.231-1.422V6h1.717v2.966c-.026.558.005 1.116.093 1.668.06.197.186.369.355.487.186.123.406.186.63.178.28.003.555-.082.785-.242.218-.142.383-.35.473-.594.116-.573.16-1.158.128-1.742v-2.72h1.707v6.442h-1.604zM261.778 12.444h-1.707V6.002h1.586v.917c.185-.334.438-.626.743-.857.221-.14.478-.21.74-.206.396.002.785.113 1.123.32l-.53 1.49c-.234-.168-.512-.266-.8-.281-.22-.007-.435.063-.608.199-.201.19-.338.439-.39.711-.128.713-.176 1.438-.147 2.162l-.01 1.987zM264.594 9.138c.001-.576.145-1.143.42-1.65.263-.516.677-.939 1.187-1.212.527-.285 1.118-.429 1.717-.42.897-.03 1.767.313 2.4.95.625.64.963 1.508.935 2.403.028.904-.314 1.78-.945 2.428-.624.64-1.487.989-2.38.964-.587 0-1.167-.138-1.692-.402-.522-.253-.95-.665-1.223-1.177-.295-.583-.439-1.23-.42-1.884zm1.75.089c-.036.53.126 1.054.454 1.472.284.322.694.507 1.124.507.43 0 .84-.185 1.123-.507.332-.42.498-.948.466-1.483.034-.525-.126-1.044-.451-1.458-.283-.325-.693-.511-1.124-.511-.43 0-.84.186-1.124.511-.338.419-.505.95-.469 1.486v-.017zM272.54 6.002h1.593v.946c.211-.328.5-.599.84-.79.356-.203.76-.307 1.17-.302.732-.005 1.43.317 1.901.878.558.693.836 1.57.783 2.457.058.906-.22 1.801-.783 2.514-.47.571-1.172.9-1.912.896-.336.004-.668-.069-.971-.213-.346-.187-.655-.434-.914-.73v3.25h-1.707V6.002zm1.69 3.114c-.046.57.106 1.137.43 1.608.252.333.648.527 1.066.522.388.006.756-.172.992-.48.304-.462.443-1.013.395-1.564.04-.534-.104-1.065-.409-1.504-.239-.314-.612-.498-1.006-.494-.403-.008-.787.17-1.042.483-.307.41-.459.917-.427 1.43zM283.929 10.4l1.7.284c-.183.574-.546 1.072-1.035 1.423-.528.343-1.149.515-1.778.49-1.124 0-1.953-.367-2.489-1.102-.446-.653-.67-1.432-.64-2.222-.054-.917.25-1.82.846-2.517.544-.6 1.324-.932 2.134-.907.861-.042 1.696.307 2.272.95.554.634.82 1.606.796 2.915h-4.267c-.015.431.132.853.413 1.18.252.277.61.431.985.423.243.008.48-.07.672-.22.197-.188.334-.43.39-.697zm.096-1.724c.02-.411-.118-.814-.384-1.128-.225-.251-.548-.393-.885-.387-.354-.01-.694.14-.925.409-.254.31-.381.705-.355 1.106h2.549zM56.91 27.378L56.91 18.489 63.015 18.489 63.015 19.996 58.706 19.996 58.706 22.105 62.425 22.105 62.425 23.612 58.706 23.612 58.706 27.378zM65.778 22.901l-1.55-.277c.127-.554.445-1.045.9-1.387.571-.337 1.232-.493 1.894-.448.58-.032 1.16.06 1.7.27.329.14.605.38.79.687.186.487.264 1.009.227 1.529v1.99c-.012.42.015.841.081 1.256.065.3.168.592.306.867h-1.689c-.046-.113-.1-.284-.163-.504-.029-.104-.05-.168-.06-.203-.27.269-.587.486-.936.64-.337.143-.7.215-1.066.213-.574.032-1.136-.162-1.568-.54-.38-.353-.59-.851-.576-1.37-.006-.342.086-.68.263-.973.173-.287.428-.516.732-.658.434-.19.89-.323 1.358-.398.565-.088 1.12-.228 1.657-.42v-.17c.029-.262-.06-.522-.242-.712-.274-.168-.596-.242-.917-.21-.536-.07-1.035.288-1.141.818zm2.282 1.387c-.34.105-.687.193-1.038.263-.324.05-.638.15-.931.295-.209.13-.335.359-.335.605 0 .235.098.459.27.618.183.175.428.269.68.26.319-.003.628-.11.882-.302.194-.138.337-.337.405-.566.058-.273.08-.553.067-.832v-.341zM77.035 22.84l-1.686.307c-.036-.287-.172-.55-.384-.747-.22-.177-.499-.268-.782-.256-.388-.014-.762.148-1.017.44-.293.434-.427.955-.38 1.476 0 .765.128 1.305.387 1.622.25.313.634.489 1.035.473.29.01.574-.087.796-.274.245-.262.398-.597.438-.953l1.678.284c-.122.681-.476 1.298-1.003 1.746-.575.418-1.277.626-1.987.59-.846.04-1.668-.285-2.258-.892-.596-.687-.899-1.58-.843-2.489-.056-.908.248-1.803.847-2.489.599-.608 1.43-.932 2.282-.889.664-.035 1.321.142 1.878.505.495.39.846.935.999 1.547zM78.329 20.06V18.49h1.707v1.582l-1.707-.01zm0 7.328v-6.453h1.707v6.443l-1.707.01zM81.778 27.378L81.778 18.489 83.484 18.489 83.484 27.378zM85.244 20.06V18.49h1.707v1.582l-1.707-.01zm0 7.328v-6.453h1.707v6.443l-1.707.01zM91.659 20.935v1.362h-1.167v2.592c-.012.307 0 .615.036.92.022.089.075.166.15.218.084.057.185.085.287.081.238-.016.47-.072.69-.163l.146 1.326c-.428.177-.888.264-1.351.256-.285.004-.568-.05-.832-.156-.215-.081-.404-.22-.544-.402-.13-.2-.21-.428-.238-.665-.05-.399-.07-.8-.057-1.202v-2.805h-.783v-1.362h.783v-1.283l1.713-.996v2.28h1.167zM92.036 20.935h1.83l1.544 4.58 1.507-4.58h1.778l-2.275 6.208L96 28.27c-.112.3-.255.59-.427.86-.126.188-.285.352-.469.484-.198.134-.418.231-.65.288-.285.074-.578.108-.872.103-.325.002-.65-.033-.967-.103l-.17-1.337c.233.049.472.075.71.079.334.026.66-.106.882-.356.204-.264.353-.566.438-.889l-2.44-6.464zM102.827 24.071c.003-.576.147-1.142.42-1.65.264-.514.678-.937 1.187-1.212.527-.284 1.118-.429 1.717-.42.898-.032 1.768.312 2.4.95.626.64.964 1.508.935 2.403.03.904-.311 1.78-.942 2.429-.624.639-1.486.988-2.379.963-.588 0-1.167-.137-1.692-.402-.522-.253-.952-.665-1.227-1.176-.294-.584-.438-1.232-.42-1.885zm1.753.089c-.037.53.125 1.055.455 1.472.283.323.692.508 1.121.508.43 0 .839-.185 1.122-.508.33-.421.492-.95.455-1.483.035-.525-.126-1.044-.451-1.457-.282-.325-.692-.512-1.122-.512-.43 0-.84.187-1.122.512-.334.42-.498.95-.458 1.486v-.018zM110.076 20.935h.95v-.487c-.02-.412.037-.825.17-1.216.134-.283.36-.513.64-.65.365-.183.77-.27 1.177-.253.483 0 .962.073 1.423.217l-.232 1.19c-.256-.061-.518-.093-.782-.095-.193-.019-.386.043-.533.17-.13.198-.186.434-.16.669v.455h1.276v1.34h-1.276v5.103h-1.707v-5.102h-.95l.004-1.34zM121.387 20.935v1.362h-1.167v2.592c-.01.307 0 .615.032.92.022.09.076.168.153.218.085.057.186.086.288.081.236-.016.468-.072.687-.163l.145 1.326c-.428.177-.888.264-1.35.256-.286.003-.569-.05-.833-.156-.215-.081-.403-.22-.544-.402-.129-.2-.21-.428-.238-.665-.046-.399-.064-.8-.053-1.202v-2.805h-.786v-1.362h.786v-1.283l1.713-.996v2.28h1.167zM124.27 18.489v3.275c.728-.909 1.975-1.215 3.04-.747.281.122.526.314.711.558.159.227.27.483.327.754.07.424.1.854.09 1.283v3.766h-1.707v-3.4c.022-.43-.012-.863-.1-1.286-.065-.183-.19-.337-.355-.438-.187-.113-.402-.168-.62-.16-.266-.003-.528.068-.756.206-.217.152-.377.37-.456.623-.12.398-.173.814-.156 1.23v3.225h-1.707v-8.89h1.69zM133.91 25.333l1.699.285c-.182.574-.545 1.073-1.035 1.422-.527.344-1.148.515-1.778.49-1.123 0-1.952-.355-2.488-1.102-.446-.653-.67-1.432-.637-2.222-.055-.916.247-1.818.843-2.517.543-.601 1.323-.933 2.133-.907.862-.041 1.696.307 2.272.95.555.637.82 1.609.797 2.915h-4.267c-.016.431.131.853.412 1.18.252.277.611.432.985.424.244.006.482-.072.676-.22.196-.189.331-.432.387-.698zm.095-1.724c.02-.41-.117-.812-.38-1.127-.236-.252-.567-.392-.911-.388-.345.004-.672.152-.902.41-.255.31-.382.705-.356 1.105h2.55zM140.562 27.378L140.562 18.489 147.168 18.489 147.168 19.996 142.361 19.996 142.361 21.97 146.844 21.97 146.844 23.467 142.361 23.467 142.361 25.892 147.339 25.892 147.339 27.378zM153.099 27.378v-.957c-.234.344-.551.624-.921.815-.374.197-.79.3-1.213.298-.407.007-.809-.093-1.166-.288-.332-.174-.595-.456-.747-.8-.172-.453-.25-.937-.23-1.422v-4.089h1.706V23.9c-.026.558.006 1.117.096 1.668.06.198.186.37.356.487.187.125.408.187.632.178.28.003.554-.081.783-.242.218-.142.385-.35.476-.594.116-.573.16-1.158.128-1.742v-2.72h1.707v6.443h-1.607zM158.087 27.378h-1.707v-6.443h1.586v.917c.183-.333.432-.624.733-.856.22-.14.475-.211.736-.207.396.002.785.113 1.123.32l-.526 1.49c-.235-.168-.514-.266-.804-.28-.22-.006-.434.064-.608.198-.199.193-.335.44-.39.711-.126.714-.173 1.439-.143 2.162v1.988zM160.9 24.071c.001-.576.145-1.143.42-1.65.264-.514.678-.937 1.187-1.212.527-.284 1.118-.429 1.717-.42.897-.03 1.767.314 2.4.95 1.254 1.366 1.254 3.465 0 4.832-.624.639-1.486.988-2.379.963-.587 0-1.167-.137-1.692-.402-.525-.252-.957-.664-1.234-1.176-.295-.584-.44-1.232-.42-1.885zm1.749.089c-.036.53.128 1.056.459 1.472.283.323.692.508 1.121.508.43 0 .839-.185 1.122-.508.328-.422.489-.95.452-1.483.034-.525-.127-1.044-.452-1.457-.282-.325-.691-.512-1.122-.512-.43 0-.84.187-1.121.512-.335.42-.499.95-.46 1.486v-.018zM168.846 20.935h1.593v.946c.211-.328.5-.599.84-.79.356-.203.762-.307 1.173-.302.734-.008 1.434.315 1.905.879.56.691.841 1.568.786 2.456.056.907-.225 1.802-.79 2.514-.47.57-1.17.899-1.909.896-.334.005-.665-.068-.967-.213-.345-.18-.654-.421-.913-.711v3.25h-1.71l-.008-8.925zm1.693 3.115c-.046.569.106 1.136.43 1.607.252.334.648.528 1.067.523.386.004.752-.174.988-.48.304-.463.443-1.014.395-1.565.041-.533-.102-1.064-.406-1.504-.24-.314-.614-.497-1.01-.494-.402-.008-.785.17-1.038.483-.31.41-.46.918-.426 1.43zM180.235 25.333l1.703.285c-.184.573-.548 1.072-1.038 1.422-.528.344-1.15.515-1.778.49-1.124 0-1.952-.355-2.49-1.102-.441-.653-.663-1.43-.632-2.218-.057-.917.244-1.82.84-2.521.543-.6 1.323-.932 2.132-.907.862-.041 1.697.307 2.272.95.555.637.82 1.609.797 2.915h-4.267c-.016.431.132.853.413 1.18.252.277.61.431.985.424.243.006.482-.072.675-.22.196-.189.332-.432.388-.698zm.096-1.724c.018-.41-.117-.812-.38-1.127-.236-.251-.566-.392-.91-.388-.345.004-.671.152-.9.41-.258.308-.385.704-.356 1.105h2.546zM184.693 22.901l-1.546-.277c.127-.554.446-1.045.9-1.387.575-.34 1.241-.496 1.909-.448.579-.032 1.158.06 1.7.27.328.14.604.38.788.687.187.487.265 1.009.228 1.529l-.018 1.99c-.012.42.016.841.082 1.256.065.3.168.592.306.867h-1.69c-.045-.113-.099-.284-.163-.504-.028-.104-.05-.168-.06-.203-.27.27-.589.487-.939.64-.337.144-.7.216-1.066.213-.574.032-1.137-.162-1.568-.54-.38-.353-.59-.851-.576-1.37-.006-.342.086-.68.263-.973.173-.287.428-.516.732-.658.433-.189.888-.323 1.355-.398.565-.088 1.121-.228 1.66-.42v-.17c.029-.262-.06-.522-.242-.712-.274-.168-.596-.242-.917-.21-.25-.014-.498.05-.711.182-.206.162-.355.384-.427.636zm2.287 1.387c-.342.105-.688.193-1.039.263-.324.049-.638.149-.931.295-.209.13-.335.359-.334.605-.002.235.096.46.27.618.181.176.427.27.679.26.319-.004.628-.11.882-.302.194-.138.337-.337.405-.566.058-.273.08-.553.068-.832v-.341zM196.21 27.378h-1.721v-3.286c.023-.453-.014-.907-.11-1.35-.066-.193-.19-.36-.356-.477-.175-.117-.383-.177-.594-.17-.284-.004-.563.082-.796.245-.23.152-.4.38-.48.643-.111.486-.156.985-.132 1.483v2.912h-1.706v-6.443h1.585v.946c.72-.992 2.026-1.36 3.158-.889.278.109.523.287.71.52.163.21.277.452.335.71.074.378.106.763.096 1.149l.01 4.007zM201.397 18.489h1.8v4.814c-.016.498.006.996.067 1.49.067.352.263.665.551.878.349.238.766.354 1.188.33.41.03.817-.08 1.155-.312.245-.19.41-.463.466-.768.064-.502.09-1.009.078-1.515V18.49h1.8v4.668c.023.76-.025 1.519-.146 2.269-.082.411-.267.795-.537 1.116-.293.32-.66.564-1.067.711-.549.2-1.13.291-1.714.27-.657.033-1.315-.066-1.934-.291-.402-.171-.76-.434-1.042-.768-.241-.287-.414-.625-.505-.988-.138-.745-.198-1.501-.177-2.258l.017-4.73zM216.256 27.378h-1.707v-3.286c.023-.453-.014-.907-.11-1.35-.066-.193-.19-.36-.355-.477-.176-.117-.383-.177-.594-.17-.285-.004-.563.082-.797.245-.23.153-.4.38-.483.643-.108.487-.15.985-.128 1.483v2.912h-1.707v-6.443h1.586v.946c.715-.994 2.018-1.367 3.15-.903.278.108.523.287.711.519.162.21.276.453.334.711.075.378.107.763.096 1.148l.004 4.022zM217.988 20.06V18.49h1.706v1.582l-1.706-.01zm0 7.328v-6.453h1.706v6.443l-1.706.01zM221.049 24.071c.003-.576.147-1.142.42-1.65.264-.514.678-.937 1.187-1.212.527-.284 1.118-.429 1.717-.42.898-.032 1.768.312 2.4.95 1.253 1.367 1.253 3.464 0 4.832-.624.64-1.488.989-2.382.963-.587 0-1.165-.137-1.689-.402-.525-.252-.956-.664-1.234-1.176-.294-.584-.438-1.232-.42-1.885zm1.75.089c-.037.53.127 1.056.458 1.472.283.323.692.508 1.122.508.43 0 .838-.185 1.121-.508.328-.422.49-.95.452-1.483.034-.525-.126-1.044-.452-1.457-.282-.325-.691-.512-1.121-.512-.43 0-.84.187-1.122.512-.335.42-.498.95-.459 1.486v-.018zM234.916 27.378h-1.707v-3.286c.025-.453-.012-.907-.11-1.35-.065-.193-.19-.36-.356-.477-.175-.117-.383-.177-.594-.17-.283-.004-.56.082-.793.245-.23.152-.401.38-.483.643-.111.486-.156.985-.132 1.483v2.912h-1.706v-6.443h1.585v.946c.49-.692 1.287-1.1 2.134-1.092.354-.004.705.065 1.03.203.279.11.523.288.712.52.16.21.274.452.334.71.071.379.102.764.093 1.149l-.007 4.007z"/>
    </g>
</svg>
