<svg xmlns="http://www.w3.org/2000/svg" width="140" height="39" viewBox="0 0 140 39">
    <g fill="#F7F7F7" fill-rule="evenodd">
        <path d="M46.89 28.78c3.797 0 6.569-3.212 6.569-7.24 0-4.029-2.772-7.24-6.57-7.24-1.607 0-2.937.732-3.935 1.803V8.27c0-.253-.166-.422-.416-.422h-2.827c-.25 0-.416.169-.416.422v19.72c0 .253.167.422.416.422h2.55c.25 0 .388-.169.416-.422l.11-1.184c.97 1.155 2.329 1.972 4.103 1.972zm-.444-3.381c-1.995 0-3.464-1.803-3.464-3.888 0-2.084 1.469-3.83 3.464-3.83 2.024 0 3.493 1.633 3.493 3.83 0 2.226-1.47 3.888-3.493 3.888zm14.807 3.38c3.909 0 7.04-3.183 7.04-7.24 0-4.056-3.131-7.24-7.04-7.24-3.908 0-7.04 3.184-7.04 7.24 0 4.057 3.132 7.24 7.04 7.24zm0-3.436c-1.967 0-3.52-1.578-3.52-3.803 0-2.226 1.553-3.803 3.52-3.803 1.94 0 3.52 1.577 3.52 3.803 0 2.225-1.58 3.803-3.52 3.803zm11.592 3.07c.25 0 .416-.169.416-.422v-7.55c0-.648.942-2.704 2.994-2.704 1.33 0 2.55.788 2.55 3.07v7.184c0 .253.166.422.415.422h2.827c.25 0 .416-.169.416-.422v-7.86c0-3.69-2.134-5.831-4.906-5.831-1.968 0-3.409 1.098-4.296 2.563v-.028l-.11-1.803c-.028-.253-.167-.422-.417-.422h-2.716c-.25 0-.416.169-.416.422v12.959c0 .253.167.422.416.422h2.827zm16.36.366c1.718 0 3.104-.986 4.046-2.338l.111 1.55c.028.253.166.422.416.422h2.716c.25 0 .416-.169.416-.422V15.032c0-.253-.166-.422-.416-.422h-2.827c-.25 0-.416.169-.416.422v7.634c0 .986-.97 2.677-2.938 2.677-1.302 0-2.605-.79-2.605-3.071v-7.24c0-.253-.166-.422-.416-.422h-2.827c-.25 0-.416.169-.416.422v7.916c0 3.69 2.107 5.831 5.156 5.831zm12.672-.366c.25 0 .416-.169.416-.422v-7.55c0-.648.943-2.704 2.994-2.704 1.33 0 2.55.788 2.55 3.07v7.184c0 .253.166.422.415.422h2.827c.25 0 .416-.169.416-.422v-7.606c0-.986.943-2.648 2.994-2.648 1.302 0 2.522.788 2.522 3.07v7.184c0 .253.166.422.416.422h2.827c.25 0 .416-.169.416-.422v-7.86c0-3.69-2.135-5.831-5.1-5.831-2.218 0-3.825 1.07-4.795 2.563-.86-1.662-2.384-2.563-4.186-2.563-1.968 0-3.409 1.098-4.296 2.563v-.028l-.11-1.803c-.028-.253-.167-.422-.416-.422H99.05c-.25 0-.415.169-.415.422v12.959c0 .253.166.422.415.422h2.827zM124.28 11.99c1.109 0 1.996-.93 1.996-2.057 0-1.126-.887-2.056-1.996-2.056-1.136 0-2.023.93-2.023 2.056 0 1.127.887 2.057 2.023 2.057zm1.414 16.423c.249 0 .415-.169.415-.422V15.032c0-.253-.166-.422-.415-.422h-2.828c-.249 0-.415.169-.415.422v12.959c0 .253.166.422.415.422h2.828zm8.681.366c2.162 0 4.047-.958 5.322-2.45.166-.198.138-.423-.028-.592l-1.69-1.634c-.195-.197-.389-.197-.61 0-.776.704-1.608 1.24-2.91 1.24-2.052 0-3.493-1.634-3.493-3.803 0-2.17 1.441-3.803 3.492-3.803 1.248 0 2.051.535 2.827 1.24.222.196.416.224.61.027l1.691-1.662c.166-.169.194-.394.028-.591-1.275-1.493-3.132-2.451-5.239-2.451-3.908 0-6.93 3.183-6.93 7.24 0 4.056 3.022 7.24 6.93 7.24zM9.793 19.335c5.408 0 9.793 4.316 9.793 9.64 0 5.325-4.385 9.64-9.793 9.64v-19.28zM9.793 19.28C4.384 19.28 0 14.964 0 9.64 0 4.316 4.384 0 9.793 0v19.28z"/>
    </g>
</svg>
