<svg xmlns="http://www.w3.org/2000/svg" width="140" height="39" viewBox="0 0 140 39">
    <g fill="none" fill-rule="evenodd">
        <path fill="#1E1E21" d="M46.89 27.024c3.797 0 6.569-3.015 6.569-6.798s-2.772-6.798-6.57-6.798c-1.607 0-2.937.688-3.935 1.693V7.767c0-.238-.166-.397-.416-.397h-2.827c-.25 0-.416.159-.416.397v18.517c0 .238.167.397.416.397h2.55c.25 0 .388-.16.416-.397l.11-1.111c.97 1.084 2.329 1.851 4.103 1.851zm-.444-3.174c-1.995 0-3.464-1.693-3.464-3.65 0-1.958 1.469-3.598 3.464-3.598 2.024 0 3.493 1.534 3.493 3.598 0 2.09-1.47 3.65-3.493 3.65zm14.807 3.174c3.909 0 7.04-2.989 7.04-6.798s-3.131-6.798-7.04-6.798c-3.908 0-7.04 2.989-7.04 6.798 0 3.81 3.132 6.798 7.04 6.798zm0-3.227c-1.967 0-3.52-1.481-3.52-3.57 0-2.09 1.553-3.572 3.52-3.572 1.94 0 3.52 1.481 3.52 3.571s-1.58 3.571-3.52 3.571zm11.592 2.884c.25 0 .416-.16.416-.397v-7.09c0-.608.942-2.539 2.994-2.539 1.33 0 2.55.74 2.55 2.883v6.746c0 .238.166.397.415.397h2.827c.25 0 .416-.16.416-.397v-7.38c0-3.466-2.134-5.476-4.906-5.476-1.968 0-3.409 1.032-4.296 2.407v-.026l-.11-1.693c-.028-.238-.167-.397-.417-.397h-2.716c-.25 0-.416.159-.416.397v12.168c0 .238.167.397.416.397h2.827zm16.36.343c1.718 0 3.104-.925 4.046-2.195l.111 1.455c.028.238.166.397.416.397h2.716c.25 0 .416-.16.416-.397V14.116c0-.238-.166-.397-.416-.397h-2.827c-.25 0-.416.159-.416.397v7.168c0 .926-.97 2.513-2.938 2.513-1.302 0-2.605-.74-2.605-2.883v-6.798c0-.238-.166-.397-.416-.397h-2.827c-.25 0-.416.159-.416.397v7.433c0 3.465 2.107 5.475 5.156 5.475zm12.672-.343c.25 0 .416-.16.416-.397v-7.09c0-.608.943-2.539 2.994-2.539 1.33 0 2.55.74 2.55 2.883v6.746c0 .238.166.397.415.397h2.827c.25 0 .416-.16.416-.397v-7.142c0-.926.943-2.487 2.994-2.487 1.302 0 2.522.74 2.522 2.883v6.746c0 .238.166.397.416.397h2.827c.25 0 .416-.16.416-.397v-7.38c0-3.466-2.135-5.476-5.1-5.476-2.218 0-3.825 1.005-4.795 2.407-.86-1.56-2.384-2.407-4.186-2.407-1.968 0-3.409 1.032-4.296 2.407v-.026l-.11-1.693c-.028-.238-.167-.397-.416-.397H99.05c-.25 0-.415.159-.415.397v12.168c0 .238.166.397.415.397h2.827zm22.402-15.422c1.109 0 1.996-.873 1.996-1.931s-.887-1.931-1.996-1.931c-1.136 0-2.023.873-2.023 1.93 0 1.059.887 1.932 2.023 1.932zm1.414 15.422c.249 0 .415-.16.415-.397V14.116c0-.238-.166-.397-.415-.397h-2.828c-.249 0-.415.159-.415.397v12.168c0 .238.166.397.415.397h2.828zm8.681.343c2.162 0 4.047-.899 5.322-2.3.166-.186.138-.398-.028-.556l-1.69-1.535c-.195-.185-.389-.185-.61 0-.776.662-1.608 1.164-2.91 1.164-2.052 0-3.493-1.534-3.493-3.57 0-2.038 1.441-3.572 3.492-3.572 1.248 0 2.051.503 2.827 1.164.222.185.416.212.61.026l1.691-1.56c.166-.159.194-.37.028-.556-1.275-1.402-3.132-2.301-5.239-2.301-3.908 0-6.93 2.989-6.93 6.798 0 3.81 3.022 6.798 6.93 6.798z" transform="translate(0 .902)"/>
        <g>
            <path fill="#1E1E21" d="M9.793 18.156c5.408 0 9.793 4.053 9.793 9.053 0 5-4.385 9.052-9.793 9.052V18.156z" transform="translate(0 .902)"/>
            <path fill="#2D14E3" d="M9.793 18.105C4.384 18.105 0 14.052 0 9.052 0 4.052 4.384 0 9.793 0v18.105z" transform="translate(0 .902)"/>
        </g>
    </g>
</svg>
