<?xml version="1.0" standalone="no"?>
<!DOCTYPE svg PUBLIC "-//W3C//DTD SVG 20010904//EN"
 "http://www.w3.org/TR/2001/REC-SVG-20010904/DTD/svg10.dtd">
<svg version="1.0" xmlns="http://www.w3.org/2000/svg"
 width="1248.000000pt" height="1248.000000pt" viewBox="0 0 1248.000000 1248.000000"
 preserveAspectRatio="xMidYMid meet">
<metadata>
Created by potrace 1.11, written by Peter Selinger 2001-2013
</metadata>
<g transform="translate(0.000000,1248.000000) scale(0.100000,-0.100000)"
fill="#000000" stroke="none">
<path d="M5957 12474 c-1 -1 -38 -5 -82 -8 -87 -7 -119 -12 -208 -27 -32 -6
-70 -12 -85 -14 -32 -5 -67 -13 -67 -15 0 -1 -11 -3 -25 -5 -100 -14 -421
-115 -555 -175 -116 -52 -295 -141 -355 -178 -89 -54 -243 -154 -250 -162 -3
-3 -30 -23 -60 -45 -30 -22 -60 -44 -66 -50 -6 -5 -33 -28 -60 -50 -99 -81
-264 -242 -339 -330 -22 -26 -45 -52 -50 -59 -25 -26 -131 -162 -140 -178 -5
-10 -32 -50 -60 -90 -92 -135 -187 -307 -260 -473 -14 -33 -30 -68 -36 -77 -5
-10 -9 -23 -9 -29 0 -6 -6 -25 -14 -42 -16 -35 -42 -114 -74 -217 -20 -67 -29
-100 -47 -185 -3 -11 -7 -30 -10 -42 -13 -58 -15 -70 -31 -177 -3 -21 -7 -47
-9 -57 -20 -101 -27 -552 -12 -689 13 -111 16 -134 21 -165 3 -16 8 -48 12
-70 3 -22 19 -96 36 -165 16 -69 31 -132 33 -140 2 -8 4 -16 5 -17 2 -2 3 -6
4 -10 19 -75 103 -302 117 -318 5 -5 9 -15 9 -23 0 -42 197 -397 300 -540 25
-35 50 -71 55 -80 13 -20 42 -56 78 -96 15 -17 27 -37 27 -45 0 -8 3 -12 6 -8
3 3 18 -8 32 -26 72 -87 254 -268 354 -352 59 -50 229 -175 237 -175 5 0 11
-4 13 -9 3 -8 133 -91 223 -143 101 -57 346 -173 390 -184 14 -3 28 -10 31
-15 3 -5 15 -9 28 -9 12 0 26 -4 32 -9 8 -8 117 -46 160 -56 10 -2 53 -14 94
-26 98 -27 249 -59 348 -73 146 -20 254 -29 366 -30 l110 -1 0 3080 0 3080
-108 0 c-59 0 -108 0 -109 -1z"/>
<path d="M6182 6285 c-4 -5 -7 -1394 -7 -3086 l-1 -3076 101 2 c91 3 225 13
265 20 8 1 44 6 80 10 76 9 88 11 155 25 28 6 60 12 73 15 12 2 30 6 40 9 9 3
28 7 42 10 14 3 57 14 95 26 39 11 79 23 90 25 23 5 194 66 240 86 17 7 32 13
35 14 59 20 303 143 401 201 99 59 267 174 293 199 8 8 17 15 21 15 3 0 33 22
65 49 33 27 66 55 75 63 55 46 355 352 355 363 0 5 30 42 60 75 8 9 31 38 50
66 19 27 38 50 42 52 4 2 8 10 8 18 0 8 5 14 10 14 6 0 10 7 10 15 0 8 3 15 8
15 4 0 12 9 17 19 6 11 33 57 61 103 83 133 186 342 241 488 52 140 126 388
139 470 7 46 14 85 19 110 6 32 14 86 21 141 23 191 23 567 -1 739 -19 142
-34 224 -68 365 -20 82 -81 284 -97 320 -5 11 -19 45 -30 75 -12 30 -28 67
-36 83 -9 15 -12 27 -7 27 4 0 3 4 -2 8 -6 4 -21 32 -35 62 -51 113 -239 433
-270 460 -3 3 -17 21 -30 40 -13 19 -27 37 -30 40 -3 3 -13 14 -21 26 -65 94
-254 296 -383 408 -32 28 -68 60 -80 71 -53 51 -327 245 -345 245 -6 0 -11 5
-11 10 0 6 -5 10 -12 10 -6 0 -19 6 -27 14 -14 12 -249 140 -261 141 -6 1 -99
43 -123 56 -55 30 -411 148 -492 163 -11 3 -40 9 -65 15 -55 12 -94 20 -140
27 -19 2 -46 7 -60 9 -84 16 -105 18 -275 30 -159 11 -196 11 -203 0z"/>
</g>
</svg>
